<svg width="164" height="164" xmlns="http://www.w3.org/2000/svg" xmlns:xlink="http://www.w3.org/1999/xlink" xml:space="preserve" overflow="hidden"><g transform="translate(-54 -232)"><g><g><g><g><path d="M136.508 260.865C107.438 260.865 83.8727 284.43 83.8727 313.5 83.8727 342.57 107.438 366.135 136.508 366.135 165.578 366.135 189.144 342.57 189.144 313.5 189.11 284.444 165.564 260.898 136.508 260.865ZM136.508 330.479C127.131 330.479 119.529 322.877 119.529 313.5 119.529 304.123 127.131 296.521 136.508 296.521 145.885 296.521 153.487 304.123 153.487 313.5 153.477 322.873 145.881 330.469 136.508 330.479ZM116.386 316.547 89.4811 298.891C90.6313 295.207 92.2126 291.673 94.192 288.36L123.971 297.473C118.131 301.955 115.218 309.279 116.386 316.547ZM149.046 297.473 178.824 288.361C180.804 291.673 182.385 295.207 183.535 298.891L156.63 316.547C157.798 309.279 154.886 301.955 149.046 297.473ZM136.508 264.26C152.623 264.267 167.713 272.162 176.906 285.397L145.199 295.099C139.704 292.467 133.312 292.467 127.817 295.099L96.1105 285.397C105.303 272.162 120.394 264.267 136.508 264.26ZM87.2686 313.5C87.2711 309.745 87.7037 306.003 88.5581 302.347L117.787 321.528C118.906 324.11 120.546 326.433 122.604 328.352L127.394 361.88C104.142 357.471 87.3015 337.166 87.2686 313.5ZM130.899 362.411 126.439 331.19C132.675 334.77 140.341 334.77 146.577 331.19L142.117 362.411C138.391 362.849 134.626 362.849 130.899 362.411ZM145.623 361.88 150.412 328.352C152.47 326.433 154.11 324.11 155.229 321.528L184.458 302.347C190.638 328.799 174.203 355.253 147.751 361.432 147.045 361.597 146.336 361.746 145.623 361.88Z" stroke="#000000" stroke-width="1.69798" stroke-linecap="butt" stroke-linejoin="miter" stroke-miterlimit="4" stroke-opacity="1" fill="#000000" fill-rule="nonzero" fill-opacity="1"/><path d="M136.508 303.312C130.882 303.312 126.321 307.874 126.321 313.5 126.321 319.126 130.882 323.688 136.508 323.688 142.135 323.688 146.696 319.126 146.696 313.5 146.69 307.876 142.132 303.319 136.508 303.312ZM136.508 320.292C132.757 320.292 129.716 317.251 129.716 313.5 129.716 309.749 132.757 306.708 136.508 306.708 140.259 306.708 143.3 309.749 143.3 313.5 143.296 317.249 140.257 320.287 136.508 320.292Z" stroke="#000000" stroke-width="1.69798" stroke-linecap="butt" stroke-linejoin="miter" stroke-miterlimit="4" stroke-opacity="1" fill="#000000" fill-rule="nonzero" fill-opacity="1"/><path d="M136.508 248.979C100.874 248.979 71.9873 277.866 71.9873 313.5 71.9873 349.134 100.874 378.021 136.508 378.021 172.142 378.021 201.029 349.134 201.029 313.5 201.029 277.866 172.142 248.979 136.508 248.979ZM136.508 374.625C102.75 374.625 75.3831 347.258 75.3831 313.5 75.3831 279.742 102.75 252.375 136.508 252.375 170.266 252.375 197.633 279.742 197.633 313.5 197.595 347.243 170.251 374.587 136.508 374.625Z" stroke="#000000" stroke-width="1.69798" stroke-linecap="butt" stroke-linejoin="miter" stroke-miterlimit="4" stroke-opacity="1" fill="#000000" fill-rule="nonzero" fill-opacity="1"/></g></g></g></g></g></svg>