<svg width="164" height="163" xmlns="http://www.w3.org/2000/svg" xmlns:xlink="http://www.w3.org/1999/xlink" xml:space="preserve" overflow="hidden"><g transform="translate(-256 -210)"><g><g><g><g><path d="M81.0081 28.6875C52.1168 28.6875 28.6956 52.1087 28.6956 81 28.6956 109.891 52.1168 133.312 81.0081 133.312 109.899 133.312 133.321 109.891 133.321 81 133.288 52.1222 109.886 28.7204 81.0081 28.6875ZM81.0081 97.875C71.6884 97.875 64.1331 90.3197 64.1331 81 64.1331 71.6803 71.6884 64.125 81.0081 64.125 90.3278 64.125 97.8831 71.6803 97.8831 81 97.8728 90.3155 90.3236 97.8647 81.0081 97.875ZM61.0099 84.0284 34.2696 66.4806C35.4127 62.8197 36.9843 59.3068 38.9515 56.0147L68.5474 65.0712C62.7433 69.5258 59.849 76.8045 61.0099 84.0284ZM93.4688 65.0712 123.065 56.0149C125.032 59.3068 126.604 62.8197 127.747 66.4806L101.006 84.0284C102.167 76.8045 99.2729 69.5258 93.4688 65.0712ZM81.0081 32.0625C97.0237 32.0686 112.022 39.9156 121.158 53.0695L89.6459 62.7121C84.1845 60.0959 77.8317 60.0959 72.3703 62.7121L40.8583 53.0693C49.9947 39.9156 64.9925 32.0686 81.0081 32.0625ZM32.0706 81C32.0731 77.2683 32.5031 73.5492 33.3523 69.9153L62.4022 88.9788C63.5141 91.5448 65.1439 93.8537 67.1893 95.7607L71.9496 129.083C48.8408 124.701 32.1033 104.521 32.0706 81ZM75.4336 129.611 71.0011 98.5817C77.1981 102.139 84.8178 102.139 91.0148 98.5817L86.5829 129.611C82.8792 130.047 79.1373 130.047 75.4336 129.611ZM90.0669 129.083 94.8269 95.7607C96.8723 93.8537 98.5021 91.5448 99.614 88.9788L128.664 69.9153C134.806 96.2054 118.472 122.497 92.1819 128.638 91.4802 128.802 90.7752 128.95 90.0669 129.083Z" stroke="#00B050" stroke-width="1.68752" stroke-linecap="butt" stroke-linejoin="miter" stroke-miterlimit="4" stroke-opacity="1" fill="#00FA00" fill-rule="nonzero" fill-opacity="1" transform="matrix(1.00617 0 0 1 257 211)"/><path d="M81.0081 70.875C75.4162 70.875 70.8831 75.4081 70.8831 81 70.8831 86.5919 75.4162 91.125 81.0081 91.125 86.6 91.125 91.1331 86.5919 91.1331 81 91.127 75.4107 86.5974 70.8811 81.0081 70.875ZM81.0081 87.75C77.2802 87.75 74.2581 84.7279 74.2581 81 74.2581 77.2721 77.2802 74.25 81.0081 74.25 84.736 74.25 87.7581 77.2721 87.7581 81 87.7539 84.7262 84.7343 87.7458 81.0081 87.75Z" stroke="#00B050" stroke-width="1.68752" stroke-linecap="butt" stroke-linejoin="miter" stroke-miterlimit="4" stroke-opacity="1" fill="#00FA00" fill-rule="nonzero" fill-opacity="1" transform="matrix(1.00617 0 0 1 257 211)"/><path d="M81.0081 16.875C45.5929 16.875 16.8831 45.5848 16.8831 81 16.8831 116.415 45.5929 145.125 81.0081 145.125 116.423 145.125 145.133 116.415 145.133 81 145.133 45.5848 116.423 16.875 81.0081 16.875ZM81.0081 141.75C47.4567 141.75 20.2581 114.551 20.2581 81 20.2581 47.4486 47.4567 20.25 81.0081 20.25 114.559 20.25 141.758 47.4486 141.758 81 141.72 114.536 114.544 141.712 81.0081 141.75Z" stroke="#00B050" stroke-width="1.68752" stroke-linecap="butt" stroke-linejoin="miter" stroke-miterlimit="4" stroke-opacity="1" fill="#00FA00" fill-rule="nonzero" fill-opacity="1" transform="matrix(1.00617 0 0 1 257 211)"/></g></g></g></g></g></svg>