<svg width="163" height="164" xmlns="http://www.w3.org/2000/svg" xmlns:xlink="http://www.w3.org/1999/xlink" xml:space="preserve" overflow="hidden"><g transform="translate(-273 -210)"><g><g><g><g><path d="M108 50.625C108 65.5367 95.9117 77.625 81 77.625 66.0883 77.625 54 65.5367 54 50.625 54 35.7133 66.0883 23.625 81 23.625 95.9117 23.625 108 35.7133 108 50.625Z" fill="#00FA00" fill-rule="nonzero" fill-opacity="1" transform="matrix(1 0 0 1.00617 274 211)"/><path d="M135 138.375 135 111.375C135 107.325 132.975 103.275 129.6 100.575 122.175 94.5 112.725 90.45 103.275 87.75 96.525 85.725 89.1 84.375 81 84.375 73.575 84.375 66.15 85.725 58.725 87.75 49.275 90.45 39.825 95.175 32.4 100.575 29.025 103.275 27 107.325 27 111.375L27 138.375 135 138.375Z" fill="#00FA00" fill-rule="nonzero" fill-opacity="1" transform="matrix(1 0 0 1.00617 274 211)"/></g></g></g></g></g></svg>