<svg width="163" height="164" xmlns="http://www.w3.org/2000/svg" xmlns:xlink="http://www.w3.org/1999/xlink" xml:space="preserve" overflow="hidden"><g transform="translate(-621 -168)"><g><g><g><g><path d="M699.625 192.625 706.375 192.625 706.375 212.875 699.625 212.875Z" fill="#FF0000" fill-rule="nonzero" fill-opacity="1"/><path d="M753.472 204.386 739.988 217.87 735.215 213.097 748.699 199.613Z" fill="#FF0000" fill-rule="nonzero" fill-opacity="1"/><path d="M670.7 213.012 665.927 217.785 652.443 204.301 657.216 199.528Z" fill="#FF0000" fill-rule="nonzero" fill-opacity="1"/><path d="M743.5 239.875 760.375 239.875 760.375 246.625 743.5 246.625Z" fill="#FF0000" fill-rule="nonzero" fill-opacity="1"/><path d="M645.625 239.875 662.5 239.875 662.5 246.625 645.625 246.625Z" fill="#FF0000" fill-rule="nonzero" fill-opacity="1"/><path d="M676 287.125 681.737 229.75 724.094 229.75 730 287.125 676 287.125ZM750.25 287.125 740.125 287.125 734.05 225.7C733.713 222.325 730.844 219.625 727.3 219.625L678.7 219.625C675.156 219.625 672.287 222.325 671.95 225.7L665.875 287.125 655.75 287.125 655.75 297.25 645.625 297.25 645.625 307.375 760.375 307.375 760.375 297.25 750.25 297.25 750.25 287.125Z" fill="#FF0000" fill-rule="nonzero" fill-opacity="1"/><path d="M711.1 236.5 715.319 280.375 722.237 280.375 717.85 236.5Z" fill="#FF0000" fill-rule="nonzero" fill-opacity="1"/></g></g></g></g></g></svg>