<svg width="163" height="164" xmlns="http://www.w3.org/2000/svg" xmlns:xlink="http://www.w3.org/1999/xlink" xml:space="preserve" overflow="hidden"><g transform="translate(-185 -168)"><g><g><g><g><path d="M263.625 192.625 270.375 192.625 270.375 212.875 263.625 212.875Z" stroke="#00FA00" stroke-width="1.68745" stroke-linecap="butt" stroke-linejoin="miter" stroke-miterlimit="4" stroke-opacity="1" fill="#00FA00" fill-rule="nonzero" fill-opacity="1"/><path d="M317.472 204.386 303.988 217.87 299.215 213.097 312.699 199.613Z" stroke="#00FA00" stroke-width="1.68744" stroke-linecap="butt" stroke-linejoin="miter" stroke-miterlimit="4" stroke-opacity="1" fill="#00FA00" fill-rule="nonzero" fill-opacity="1"/><path d="M234.7 213.012 229.927 217.785 216.443 204.301 221.216 199.528Z" stroke="#00FA00" stroke-width="1.68744" stroke-linecap="butt" stroke-linejoin="miter" stroke-miterlimit="4" stroke-opacity="1" fill="#00FA00" fill-rule="nonzero" fill-opacity="1"/><path d="M307.5 239.875 324.375 239.875 324.375 246.625 307.5 246.625Z" stroke="#00FA00" stroke-width="1.68745" stroke-linecap="butt" stroke-linejoin="miter" stroke-miterlimit="4" stroke-opacity="1" fill="#00FA00" fill-rule="nonzero" fill-opacity="1"/><path d="M209.625 239.875 226.5 239.875 226.5 246.625 209.625 246.625Z" stroke="#00FA00" stroke-width="1.68745" stroke-linecap="butt" stroke-linejoin="miter" stroke-miterlimit="4" stroke-opacity="1" fill="#00FA00" fill-rule="nonzero" fill-opacity="1"/><path d="M240 287.125 245.738 229.75 288.094 229.75 294 287.125 240 287.125ZM314.25 287.125 304.125 287.125 298.05 225.7C297.712 222.325 294.844 219.625 291.3 219.625L242.7 219.625C239.156 219.625 236.288 222.325 235.95 225.7L229.875 287.125 219.75 287.125 219.75 297.25 209.625 297.25 209.625 307.375 324.375 307.375 324.375 297.25 314.25 297.25 314.25 287.125Z" stroke="#00FA00" stroke-width="1.68745" stroke-linecap="butt" stroke-linejoin="miter" stroke-miterlimit="4" stroke-opacity="1" fill="#00FA00" fill-rule="nonzero" fill-opacity="1"/><path d="M275.1 236.5 279.319 280.375 286.237 280.375 281.85 236.5Z" stroke="#00FA00" stroke-width="1.68745" stroke-linecap="butt" stroke-linejoin="miter" stroke-miterlimit="4" stroke-opacity="1" fill="#00FA00" fill-rule="nonzero" fill-opacity="1"/></g></g></g></g></g></svg>