<svg width="162" height="164" xmlns="http://www.w3.org/2000/svg" xmlns:xlink="http://www.w3.org/1999/xlink" xml:space="preserve" overflow="hidden"><g transform="translate(-840 -196)"><g><g><g><g><path d="M77.625 23.625 84.375 23.625 84.375 43.875 77.625 43.875Z" fill="#000000" fill-rule="nonzero" fill-opacity="1" transform="matrix(1 0 0 1.00617 840 197)"/><path d="M113.07 36.3924 132.197 36.3924 132.197 43.163 113.07 43.163Z" fill="#000000" fill-rule="nonzero" fill-opacity="1" transform="matrix(-0.704941 0.709293 -0.704941 -0.709293 1076.83 178.218)"/><path d="M36.3924 30.1295 43.163 30.1295 43.163 49.2566 36.3924 49.2566Z" fill="#000000" fill-rule="nonzero" fill-opacity="1" transform="matrix(-0.704941 0.709293 -0.704941 -0.709293 935.594 236.841)"/><path d="M121.5 70.875 138.375 70.875 138.375 77.625 121.5 77.625Z" fill="#000000" fill-rule="nonzero" fill-opacity="1" transform="matrix(1 0 0 1.00617 840 197)"/><path d="M23.625 70.875 40.5 70.875 40.5 77.625 23.625 77.625Z" fill="#000000" fill-rule="nonzero" fill-opacity="1" transform="matrix(1 0 0 1.00617 840 197)"/><path d="M54 118.125 59.7375 60.75 102.094 60.75 108 118.125 54 118.125ZM128.25 118.125 118.125 118.125 112.05 56.7C111.712 53.325 108.844 50.625 105.3 50.625L56.7 50.625C53.1562 50.625 50.2875 53.325 49.95 56.7L43.875 118.125 33.75 118.125 33.75 128.25 23.625 128.25 23.625 138.375 138.375 138.375 138.375 128.25 128.25 128.25 128.25 118.125Z" fill="#000000" fill-rule="nonzero" fill-opacity="1" transform="matrix(1 0 0 1.00617 840 197)"/><path d="M89.1 67.5 93.3187 111.375 100.238 111.375 95.85 67.5Z" fill="#000000" fill-rule="nonzero" fill-opacity="1" transform="matrix(1 0 0 1.00617 840 197)"/></g></g></g></g></g></svg>