<svg width="162" height="164" xmlns="http://www.w3.org/2000/svg" xmlns:xlink="http://www.w3.org/1999/xlink" xml:space="preserve" overflow="hidden"><g transform="translate(-404 -168)"><g><g><g><g><path d="M481.625 192.625 488.375 192.625 488.375 212.875 481.625 212.875Z" stroke="#E97132" stroke-width="1.68756" stroke-linecap="butt" stroke-linejoin="miter" stroke-miterlimit="4" stroke-opacity="1" fill="#E97132" fill-rule="nonzero" fill-opacity="1"/><path d="M535.472 204.386 521.988 217.87 517.215 213.097 530.699 199.613Z" stroke="#E97132" stroke-width="1.68754" stroke-linecap="butt" stroke-linejoin="miter" stroke-miterlimit="4" stroke-opacity="1" fill="#E97132" fill-rule="nonzero" fill-opacity="1"/><path d="M452.7 213.012 447.927 217.785 434.443 204.301 439.216 199.528Z" stroke="#E97132" stroke-width="1.68754" stroke-linecap="butt" stroke-linejoin="miter" stroke-miterlimit="4" stroke-opacity="1" fill="#E97132" fill-rule="nonzero" fill-opacity="1"/><path d="M525.5 239.875 542.375 239.875 542.375 246.625 525.5 246.625Z" stroke="#E97132" stroke-width="1.68756" stroke-linecap="butt" stroke-linejoin="miter" stroke-miterlimit="4" stroke-opacity="1" fill="#E97132" fill-rule="nonzero" fill-opacity="1"/><path d="M427.625 239.875 444.5 239.875 444.5 246.625 427.625 246.625Z" stroke="#E97132" stroke-width="1.68756" stroke-linecap="butt" stroke-linejoin="miter" stroke-miterlimit="4" stroke-opacity="1" fill="#E97132" fill-rule="nonzero" fill-opacity="1"/><path d="M458 287.125 463.737 229.75 506.094 229.75 512 287.125 458 287.125ZM532.25 287.125 522.125 287.125 516.05 225.7C515.713 222.325 512.844 219.625 509.3 219.625L460.7 219.625C457.156 219.625 454.288 222.325 453.95 225.7L447.875 287.125 437.75 287.125 437.75 297.25 427.625 297.25 427.625 307.375 542.375 307.375 542.375 297.25 532.25 297.25 532.25 287.125Z" stroke="#E97132" stroke-width="1.68756" stroke-linecap="butt" stroke-linejoin="miter" stroke-miterlimit="4" stroke-opacity="1" fill="#E97132" fill-rule="nonzero" fill-opacity="1"/><path d="M493.1 236.5 497.319 280.375 504.237 280.375 499.85 236.5Z" stroke="#E97132" stroke-width="1.68756" stroke-linecap="butt" stroke-linejoin="miter" stroke-miterlimit="4" stroke-opacity="1" fill="#E97132" fill-rule="nonzero" fill-opacity="1"/></g></g></g></g></g></svg>